<svg width="91" height="107" viewBox="0 0 91 107" fill="none" xmlns="http://www.w3.org/2000/svg">
<path d="M47.2732 1.77829C46.6057 1.76621 45.9403 1.91008 45.3213 2.24566C33.7911 7.19104 22.4528 12.631 11.2336 18.2476C9.21298 18.8898 9.16818 21.2148 8.69827 22.9329C5.91595 36.4428 3.87947 50.0763 1.94705 63.7275C1.38899 67.2085 2.34788 70.6685 2.82416 74.0901C4.36631 84.2271 6.1545 94.3207 7.82704 104.437H37.3125C37.0117 101.818 36.7935 99.1898 36.7063 96.5499C36.392 89.522 35.8338 82.1187 38.7203 75.5083C40.0097 72.5957 41.6775 69.5305 44.6684 68.0967C51.2097 64.7955 56.7182 59.8335 61.805 54.6344C66.4075 50.1322 70.2478 48.9168 72.9983 45.2514C75.3463 39.7504 70.6787 35.7303 64.7877 37.6452C57.9257 40.1387 51.3704 44.1801 43.9038 44.4788C37.1844 44.5831 32.0624 38.0741 31.9517 31.6901C41.5352 27.395 52.5968 24.8258 62.8297 28.4032C68.9621 30.4648 76.3041 32.3218 80.1769 32.6429C82.9917 32.8762 86.0352 29.613 85.6747 26.7243C89.0527 25.8367 91.2573 20.4111 84.6529 17.1134C76.8398 13.2121 62.7672 7.53303 49.2371 2.24566C48.6101 1.95826 47.9407 1.79034 47.2732 1.77829Z" fill="#F7CFBE"/>
<path d="M47.2732 1.77829C46.6057 1.76621 45.9403 1.91008 45.3213 2.24566C33.7911 7.19104 22.4528 12.631 11.2336 18.2476C9.21298 18.8898 9.16818 21.2148 8.69827 22.9329C5.91595 36.4428 3.87947 50.0763 1.94705 63.7275C1.38899 67.2085 2.34788 70.6685 2.82416 74.0901C4.36631 84.2271 6.1545 94.3207 7.82704 104.437H37.3125C37.0117 101.818 36.7935 99.1898 36.7063 96.5499C36.392 89.522 35.8338 82.1187 38.7203 75.5083C40.0097 72.5957 41.6775 69.5305 44.6684 68.0967C51.2097 64.7955 56.7182 59.8335 61.805 54.6344C66.4075 50.1322 70.2478 48.9168 72.9983 45.2514C75.3463 39.7504 70.6787 35.7303 64.7877 37.6452C57.9257 40.1387 51.3704 44.1801 43.9038 44.4788C37.1844 44.5831 32.0624 38.0741 31.9517 31.6901C41.5352 27.395 52.5968 24.8258 62.8297 28.4032C68.9621 30.4648 76.3041 32.3218 80.1769 32.6429C82.9917 32.8762 86.0352 29.613 85.6747 26.7243C89.0527 25.8367 91.2573 20.4111 84.6529 17.1134C76.8398 13.2121 62.7672 7.53303 49.2371 2.24566C48.6101 1.95826 47.9407 1.79034 47.2732 1.77829Z" stroke="#E16049" stroke-width="3.5552" stroke-linecap="round" stroke-linejoin="round"/>
<path d="M21.417 17.9299C21.417 17.9299 21.417 17.9299 50.1254 10.8896C50.6983 10.7491 51.8933 10.8869 52.4362 11.0879C62.6258 14.8602 76.4973 19.9241 83.5386 23.7389C87.2641 25.7573 85.6345 29.7339 83.4408 31.4902C81.5657 32.9916 79.0688 32.6084 79.1752 32.5374" stroke="#E16049" stroke-width="3.5552" stroke-linecap="round" stroke-linejoin="round"/>
</svg>
