<svg width="84" height="136" viewBox="0 0 84 136" fill="none" xmlns="http://www.w3.org/2000/svg">
<path d="M67.0699 133.573H32.5211L33.6356 120.57C33.6356 120.57 17.4991 110.986 19.4076 98.0286C21.9189 80.9741 24.095 64.2733 24.095 64.2733C24.095 64.2733 25.9326 29.0275 26.4659 18.9019C27.209 4.78567 39.8691 4.82142 39.8691 17.0751C39.8691 34.1634 40.0193 38.5301 39.758 41.9345C39.386 46.7636 40.3554 58.6513 40.3554 58.6513C40.3554 58.6513 43.1009 14.1764 43.1009 8.12918C43.1009 2.18559 55.731 -3.0155 56.4743 9.2435C57.6055 27.91 55.215 59.394 55.215 59.394C55.215 59.394 57.8391 21.5987 59.446 17.0449C61.6752 10.7294 70.4018 11.4499 70.2194 19.6451C69.8483 36.3338 68.2173 62.7377 68.2173 62.7377C68.2173 62.7377 69.8442 46.5266 70.9145 36.3619C71.657 29.3038 80.9439 24.4744 81.3158 38.9628C81.5212 46.9813 81.8076 57.2483 80.5729 67.1953C79.0187 79.7111 82.2034 89.8113 80.7032 96.5428C77.6246 110.35 67.4406 121.685 67.4406 121.685L67.0699 133.573Z" fill="#F7CFBE"/>
<path d="M67.0699 133.573H32.5211L33.6356 120.57C33.6356 120.57 17.4991 110.986 19.4076 98.0286C21.9189 80.9741 24.095 64.2733 24.095 64.2733C24.095 64.2733 25.9326 29.0275 26.4659 18.9019C27.209 4.78567 39.8691 4.82142 39.8691 17.0751C39.8691 34.1634 40.0193 38.5301 39.758 41.9345C39.386 46.7636 40.3554 58.6513 40.3554 58.6513C40.3554 58.6513 43.1009 14.1764 43.1009 8.12918C43.1009 2.18559 55.731 -3.0155 56.4743 9.2435C57.6055 27.91 55.215 59.394 55.215 59.394C55.215 59.394 57.8391 21.5987 59.446 17.0449C61.6752 10.7294 70.4018 11.4499 70.2194 19.6451C69.8483 36.3338 68.2173 62.7377 68.2173 62.7377C68.2173 62.7377 69.8442 46.5266 70.9145 36.3619C71.657 29.3038 80.9439 24.4744 81.3158 38.9628C81.5212 46.9813 81.8076 57.2483 80.5729 67.1953C79.0187 79.7111 82.2034 89.8113 80.7032 96.5428C77.6246 110.35 67.4406 121.685 67.4406 121.685L67.0699 133.573Z" stroke="#E16049" stroke-width="3.5552" stroke-linecap="round" stroke-linejoin="round"/>
<path d="M20.8932 107.687C20.8932 107.687 13.8357 92.4569 11.6067 88.3701C9.3775 84.2833 3.73879 70.1955 2.31885 66.8236C-0.653044 59.7655 9.3775 56.4222 13.8357 60.88C18.2932 65.3377 24.9798 77.9685 24.9798 77.9685C24.9798 77.9685 32.6458 80.8953 35.0096 81.6835C39.468 83.1692 42.4397 89.4844 42.4397 89.4844" fill="#F7CFBE"/>
<path d="M20.8932 107.687C20.8932 107.687 13.8357 92.4569 11.6067 88.3701C9.3775 84.2833 3.73879 70.1955 2.31885 66.8236C-0.653044 59.7655 9.3775 56.4222 13.8357 60.88C18.2932 65.3377 24.9798 77.9685 24.9798 77.9685C24.9798 77.9685 32.6458 80.8953 35.0096 81.6835C39.468 83.1692 42.4397 89.4844 42.4397 89.4844" stroke="#E16049" stroke-width="3.55528" stroke-linecap="round" stroke-linejoin="round"/>
</svg>
