<svg width="84" height="73" viewBox="0 0 84 73" fill="none" xmlns="http://www.w3.org/2000/svg">
<path d="M1.77764 52.7702V18.2216L14.7797 19.3363C14.7797 19.3363 30.1127 0.12345 43.0891 1.89297C48.9981 2.69861 51.8429 6.84929 52.8422 7.51571C54.4537 8.58971 62.6283 7.80347 70.9632 9.14468C81.2777 10.8046 83.3 17.0004 81.7069 22.8426C80.0951 28.7514 75.1945 27.8805 75.1945 27.8805C75.1945 27.8805 80.767 31.5955 79.6521 37.5389C78.6917 42.6639 72.9655 43.1111 72.9655 43.1111C72.9655 43.1111 77.5085 47.089 75.9376 51.656C73.5319 58.6478 65.9076 56.8566 65.9076 56.8566C65.9076 56.8566 73.5986 66.1357 63.9403 69.4786C54.2815 72.8227 48.0932 67.991 40.6205 67.1321C20.4238 64.8095 13.6656 53.1418 13.6656 53.1418L1.77764 52.7702Z" fill="#F7CFBE"/>
<path d="M1.77764 52.7702V18.2216L14.7797 19.3363C14.7797 19.3363 30.1127 0.12345 43.0891 1.89297C48.9981 2.69861 51.8429 6.84929 52.8422 7.51571C54.4537 8.58971 62.6283 7.80347 70.9632 9.14468C81.2777 10.8046 83.3 17.0004 81.7069 22.8426C80.0951 28.7514 75.1945 27.8805 75.1945 27.8805C75.1945 27.8805 80.767 31.5955 79.6521 37.5389C78.6917 42.6639 72.9655 43.1111 72.9655 43.1111C72.9655 43.1111 77.5085 47.089 75.9376 51.656C73.5319 58.6478 65.9076 56.8566 65.9076 56.8566C65.9076 56.8566 73.5986 66.1357 63.9403 69.4786C54.2815 72.8227 48.0932 67.991 40.6205 67.1321C20.4238 64.8095 13.6656 53.1418 13.6656 53.1418L1.77764 52.7702Z" stroke="#E16049" stroke-width="3.5552" stroke-linecap="round" stroke-linejoin="round"/>
<path d="M73.8335 27.5426C73.8335 27.5426 50.3908 18.9242 48.8788 27.1339C47.1765 36.3806 51.8735 39.6053 55.5216 39.8856C60.3303 40.2559 73.56 43.4663 73.56 43.4663C73.56 43.4663 46.15 34.8106 44.9134 43.8785C43.6266 53.3133 51.6217 52.8809 55.2176 54.1831C58.8137 55.4857 68.3228 57.3874 68.3228 57.3874C68.3228 57.3874 52.74 53.3274 49.1963 52.4185C41.6159 50.4735 33.3457 64.688 53.5689 67.0998L54.1874 68.7487" stroke="#E16049" stroke-width="3.5552" stroke-linecap="round" stroke-linejoin="round"/>
<path d="M34.7197 20.9449C34.7197 20.9449 40.522 23.8243 41.0212 28.2168C43.468 49.7225 61.3399 44.3893 59.0557 29.379C55.6621 7.07974 45.775 3.23584 45.775 3.23584" fill="#F7CFBE"/>
<path d="M34.7197 20.9449C34.7197 20.9449 40.522 23.8243 41.0212 28.2168C43.468 49.7225 61.3399 44.3893 59.0557 29.379C55.6621 7.07974 45.775 3.23584 45.775 3.23584" stroke="#E16049" stroke-width="3.5552" stroke-linecap="round" stroke-linejoin="round"/>
</svg>
