<svg width="128" height="66" viewBox="0 0 128 66" fill="none" xmlns="http://www.w3.org/2000/svg">
<path d="M1.77763 47.356V12.8079L14.7797 13.922C14.7797 13.922 31.9425 0.0492544 44.8993 1.95761C61.9532 4.46943 71.0759 4.38175 71.0759 4.38175C71.0759 4.38175 105.493 2.34712 115.631 2.15769C127.988 1.92699 129.821 15.7337 117.646 17.1172C101.509 18.9506 70.8976 21.6351 70.8976 21.6351C76.9663 24.0355 109.976 32.3756 117.646 34.2463C130.897 37.4782 126.964 50.9023 117.285 49.6653C102.586 47.7863 74.9035 37.6969 74.9035 37.6969C74.9035 37.6969 79.4463 41.6751 77.8754 46.2417C75.4701 53.2338 67.8456 51.4424 67.8456 51.4424C67.8456 51.4424 72.0393 58.805 62.3807 62.1483C52.7224 65.4919 47.9283 63.4956 40.6195 61.718C26.8747 58.3744 13.6652 47.7277 13.6652 47.7277L1.77763 47.356Z" fill="#F7CFBE"/>
<path d="M1.77763 47.356V12.8079L14.7797 13.922C14.7797 13.922 31.9425 0.0492544 44.8993 1.95761C61.9532 4.46943 71.0759 4.38175 71.0759 4.38175C71.0759 4.38175 105.493 2.34712 115.631 2.15769C127.988 1.92699 129.821 15.7337 117.646 17.1172C101.509 18.9506 70.8976 21.6351 70.8976 21.6351C76.9663 24.0355 109.976 32.3756 117.646 34.2463C130.897 37.4782 126.964 50.9023 117.285 49.6653C102.586 47.7863 74.9035 37.6969 74.9035 37.6969C74.9035 37.6969 79.4463 41.6751 77.8754 46.2417C75.4701 53.2338 67.8456 51.4424 67.8456 51.4424C67.8456 51.4424 72.0393 58.805 62.3807 62.1483C52.7224 65.4919 47.9283 63.4956 40.6195 61.718C26.8747 58.3744 13.6652 47.7277 13.6652 47.7277L1.77763 47.356Z" stroke="#E16049" stroke-width="3.5552" stroke-linecap="round" stroke-linejoin="round"/>
<path d="M74.9036 37.6969C74.9036 37.6969 50.8721 25.4379 47.5291 34.354C44.186 43.2697 50.8721 43.2697 54.216 45.1269C57.5591 46.9846 67.8457 51.4425 67.8457 51.4425C67.8457 51.4425 51.4831 43.4941 47.8376 43.1881C42.4362 42.7349 40.498 49.2897 42.7269 51.8898C44.9555 54.4904 52.385 57.4621 52.385 57.4621L54.211 60.0107" stroke="#E16049" stroke-width="3.5552" stroke-linecap="round" stroke-linejoin="round"/>
<path d="M34.7189 15.5308C34.7189 15.5308 40.2943 18.4421 41.0212 22.8023C43.4452 37.3455 60.2714 38.7822 57.9874 23.7715C54.594 1.47265 43.9296 2.44224 43.9296 2.44224" fill="#F7CFBE"/>
<path d="M34.7189 15.5308C34.7189 15.5308 40.2943 18.4421 41.0212 22.8023C43.4452 37.3455 60.2714 38.7822 57.9874 23.7715C54.594 1.47265 43.9296 2.44224 43.9296 2.44224" stroke="#E16049" stroke-width="3.5552" stroke-linecap="round" stroke-linejoin="round"/>
</svg>
