<svg width="88" height="136" viewBox="0 0 88 136" fill="none" xmlns="http://www.w3.org/2000/svg">
<path d="M67.0699 134.068H32.5212L33.6357 121.066C33.6357 121.066 17.4991 111.481 19.4076 98.5236C21.9189 81.4692 24.095 64.7683 24.095 64.7683C24.095 64.7683 15.8327 26.7909 16.366 16.6652C16.3736 5.38579 28.9991 6.78247 30.3763 13.5777C33.7301 30.1261 40.3554 59.1464 40.3554 59.1464C40.3554 59.1464 33.2112 14.6715 33.2112 8.62424C33.2112 2.68065 44.3843 -3.71827 46.5845 9.73856C48.7847 23.1954 55.2151 59.889 55.2151 59.889C55.2151 59.889 61.6429 22.0938 63.2498 17.5399C65.479 11.2245 74.2056 11.9449 74.0232 20.1402C73.6522 36.8288 68.2173 63.2327 68.2173 63.2327C68.2173 63.2327 73.4345 41.8973 75.0155 33.5881C76.5965 25.279 86.2425 29.1702 85.7139 34.2574C85.1853 39.3446 81.8076 57.7433 80.5729 67.6904C79.0187 80.2062 82.2034 90.3063 80.7032 97.0379C77.6246 110.845 67.4406 122.18 67.4406 122.18L67.0699 134.068Z" fill="#F7CFBE"/>
<path d="M67.0699 134.068H32.5212L33.6357 121.066C33.6357 121.066 17.4991 111.481 19.4076 98.5236C21.9189 81.4692 24.095 64.7683 24.095 64.7683C24.095 64.7683 15.8327 26.7909 16.366 16.6652C16.3736 5.38579 28.9991 6.78247 30.3763 13.5777C33.7301 30.1261 40.3554 59.1464 40.3554 59.1464C40.3554 59.1464 33.2112 14.6715 33.2112 8.62424C33.2112 2.68065 44.3843 -3.71827 46.5845 9.73856C48.7847 23.1954 55.2151 59.889 55.2151 59.889C55.2151 59.889 61.6429 22.0938 63.2498 17.5399C65.479 11.2245 74.2056 11.9449 74.0232 20.1402C73.6522 36.8289 68.2173 63.2328 68.2173 63.2328C68.2173 63.2328 73.4345 41.8973 75.0155 33.5881C76.5966 25.279 86.2425 29.1702 85.7139 34.2574C85.1853 39.3445 81.8076 57.7433 80.5729 67.6904C79.0187 80.2061 82.2034 90.3063 80.7032 97.0379C77.6246 110.845 67.4406 122.18 67.4406 122.18L67.0699 134.068Z" stroke="#E16049" stroke-width="3.5552" stroke-linecap="round" stroke-linejoin="round"/>
<path d="M20.8932 108.182C20.8932 108.182 13.8357 92.952 11.6067 88.8652C9.3775 84.7785 3.73879 70.6906 2.31885 67.3187C-0.653044 60.2607 9.3775 56.9173 13.8357 61.3752C18.2932 65.8328 24.9798 78.4636 24.9798 78.4636C24.9798 78.4636 32.6458 81.3904 35.0096 82.1786C39.468 83.6643 42.4397 89.9796 42.4397 89.9796" fill="#F7CFBE"/>
<path d="M20.8932 108.182C20.8932 108.182 13.8357 92.952 11.6067 88.8652C9.3775 84.7785 3.73879 70.6906 2.31885 67.3187C-0.653044 60.2607 9.3775 56.9173 13.8357 61.3752C18.2932 65.8328 24.9798 78.4636 24.9798 78.4636C24.9798 78.4636 32.6458 81.3904 35.0096 82.1786C39.468 83.6643 42.4397 89.9796 42.4397 89.9796" stroke="#E16049" stroke-width="3.5552" stroke-linecap="round" stroke-linejoin="round"/>
</svg>
